<?xml version="1.0" encoding="UTF-8"?>
<svg id="Layer_2" data-name="Layer 2" xmlns="http://www.w3.org/2000/svg" viewBox="0 0 780.98 389.5">
  <defs>
    <style>
      .cls-1, .cls-2 {
        fill: #74c7d2;
        stroke-width: 0px;
      }

      .cls-2 {
        fill-rule: evenodd;
      }
    </style>
  </defs>
  <g id="_레이어_1" data-name="레이어 1">
    <g>
      <path class="cls-1" d="M753.98,223.92l-241.94.35s62.76-101.52,56.3-119.98c-6.46-18.46-49.84,17.54-49.84,17.54l16.61-39.69-18.46-.92,18.46-51.68s11.08-19.38-52.61,53.53l-121.06,140.59h-22.15l17.69-60.3s9.23-19.38-14.77-6.46l8.89-23.2-102.96,90.24-5.43-.02-.19-8.57-.65-2.16,113.38-101.07,55.59,35.96L538.8,0l98.57,134.19,39.99-33.16,50.11,118.62"/>
      <rect class="cls-1" x=".54" y="374.27" width="137.47" height="10.9"/>
      <rect class="cls-1" x="643.52" y="374.27" width="137.47" height="10.9"/>
      <path class="cls-1" d="M116.25,143.34h-46.22v25.78h39.72v10.8h-39.72v44.02h-12.16v-91.4h58.38v10.8Z"/>
      <path class="cls-1" d="M162.35,223.94h-36.09v-9.33h11.97v-72.74h-11.97v-9.33h36.09v9.33h-11.97v72.74h11.97v9.33Z"/>
      <path class="cls-1" d="M248.15,223.94h-65.11v-91.4h12.16v80.6h52.96v10.8Z"/>
      <path class="cls-1" d="M138.11,344.52h-12.16v-78.75l-25.41,53.58h-7.24l-25.23-53.58v78.75h-11.36v-91.4h16.57l24.37,50.89,23.57-50.89h16.88v91.4Z"/>
      <path class="cls-1" d="M330.42,307.81c0,6.63-.72,12.41-2.18,17.35-1.45,4.93-3.84,9.03-7.15,12.3-3.15,3.11-6.83,5.38-11.05,6.81-4.22,1.43-9.13,2.15-14.73,2.15s-10.72-.76-14.97-2.27c-4.26-1.52-7.84-3.75-10.75-6.69-3.31-3.35-5.7-7.41-7.15-12.15-1.45-4.75-2.18-10.59-2.18-17.5v-54.69h12.15v55.31c0,4.95.34,8.86,1.01,11.72.68,2.87,1.81,5.47,3.41,7.8,1.8,2.66,4.25,4.67,7.33,6.01,3.09,1.35,6.8,2.03,11.14,2.03s8.1-.67,11.17-2c3.07-1.33,5.52-3.34,7.36-6.05,1.6-2.33,2.73-5,3.41-8.01.68-3.01,1.02-6.74,1.02-11.2v-55.61h12.15v54.69Z"/>
      <path class="cls-1" d="M423.36,344.52h-15.04l-43.34-81.76v81.76h-11.36v-91.4h18.85l39.53,74.64v-74.64h11.36v91.4Z"/>
      <path class="cls-1" d="M512.85,263.93h-32.65v80.6h-12.16v-80.6h-32.65v-10.8h77.46v10.8Z"/>
      <path class="cls-1" d="M589.83,344.52h-12.95l-8.96-25.48h-39.53l-8.96,25.48h-12.34l33.27-91.4h16.21l33.27,91.4ZM564.18,308.61l-16.02-44.86-16.09,44.86h32.11Z"/>
      <path class="cls-1" d="M635.94,344.52h-36.09v-9.33h11.97v-72.74h-11.97v-9.33h36.09v9.33h-11.97v72.74h11.97v9.33Z"/>
      <path class="cls-1" d="M726.35,344.52h-15.04l-43.34-81.76v81.76h-11.36v-91.4h18.85l39.53,74.64v-74.64h11.36v91.4Z"/>
      <g>
        <path class="cls-1" d="M191.36,372.69v14.61h7.92v1.95h-10.2v-16.56h2.27Z"/>
        <path class="cls-1" d="M216.07,372.69v1.95h-8.04v5.14h7.56v1.95h-7.56v5.56h8.2v1.95h-10.47v-16.56h10.31Z"/>
        <path class="cls-1" d="M227.17,389.25v-14.61h-5.05v-1.95h12.38v1.95h-5.05v14.61h-2.27Z"/>
        <path class="cls-1" d="M240.42,371.24h2.53l-1.72,5.24h-1.77l.96-5.24Z"/>
        <path class="cls-1" d="M254.89,387.44c1.18,0,2.06-.24,2.65-.71.59-.47.88-1.04.88-1.7v-.37c0-.37-.06-.69-.18-.96-.12-.28-.33-.52-.62-.74-.29-.21-.67-.41-1.13-.59-.46-.18-1.03-.33-1.7-.47-.78-.17-1.51-.36-2.18-.59-.67-.22-1.26-.5-1.75-.85-.49-.34-.88-.77-1.16-1.29-.28-.51-.42-1.14-.42-1.89v-.41c0-.57.11-1.11.34-1.64.23-.53.58-1,1.06-1.41s1.07-.75,1.78-1,1.54-.38,2.49-.38c1.01,0,1.93.12,2.76.37.83.25,1.59.61,2.3,1.08l-1.08,1.77c-.61-.41-1.23-.71-1.86-.9s-1.32-.28-2.09-.28c-1.04,0-1.87.23-2.49.69-.62.46-.93,1.02-.93,1.68v.37c0,.38.08.71.25.98.17.27.41.5.73.7.32.2.72.37,1.19.52.47.15,1.02.29,1.63.42,1.03.23,1.88.49,2.56.79.68.3,1.23.64,1.64,1.02.41.38.71.81.88,1.29.18.48.26,1,.26,1.56v.41c0,.77-.15,1.43-.45,2-.3.57-.71,1.05-1.23,1.44-.52.39-1.15.68-1.87.87-.73.19-1.51.29-2.35.29-1.18,0-2.26-.19-3.25-.56-.99-.38-1.83-.84-2.52-1.39l1.15-1.86c.31.23.66.45,1.06.67.4.21.8.4,1.22.56.41.16.83.29,1.25.38.42.09.81.14,1.16.14Z"/>
        <path class="cls-1" d="M289.76,387.39c-.83.8-1.73,1.35-2.71,1.65-.98.31-2.03.46-3.15.46-1,0-1.9-.15-2.71-.45-.81-.3-1.51-.75-2.09-1.37-.58-.61-1.03-1.37-1.36-2.27-.32-.9-.48-1.97-.48-3.19v-2.5c0-1.21.16-2.27.48-3.17.32-.9.78-1.66,1.37-2.27.59-.61,1.29-1.07,2.1-1.38.81-.31,1.71-.46,2.69-.46,1.15,0,2.15.14,3.01.42s1.68.73,2.46,1.34l-1.17,1.86c-.75-.61-1.47-1.02-2.15-1.22-.68-.2-1.4-.3-2.15-.3-.63,0-1.21.11-1.73.32-.53.21-.99.54-1.38.99-.39.44-.69,1.01-.91,1.7-.21.69-.32,1.51-.32,2.46v1.91c0,.95.11,1.77.32,2.46.21.69.52,1.26.91,1.7s.85.77,1.38.99c.53.21,1.11.32,1.73.32.8,0,1.59-.12,2.39-.37s1.54-.7,2.23-1.38l1.24,1.75Z"/>
        <path class="cls-1" d="M298.97,372.69v14.61h7.92v1.95h-10.2v-16.56h2.27Z"/>
        <path class="cls-1" d="M315.64,372.69v16.56h-2.27v-16.56h2.27Z"/>
        <path class="cls-1" d="M326.55,377.31c-.08-.17-.15-.33-.21-.49-.06-.16-.12-.33-.18-.49-.06-.17-.13-.36-.21-.57-.08-.21-.16-.46-.25-.74v14.24h-2.16v-16.56h3.35l4.59,10.84,4.48-10.84h3.33v16.56h-2.18v-14.24c-.08.31-.15.56-.22.77s-.13.39-.18.56c-.05.17-.11.33-.17.48-.06.15-.13.31-.21.48l-3.95,9.19h-1.93l-3.9-9.19Z"/>
        <path class="cls-1" d="M347.2,372.69h5.88c3.51,0,5.26,1.35,5.26,4.04v.48c0,.37-.05.72-.14,1.07-.09.34-.24.66-.45.95-.21.29-.48.55-.83.77s-.76.39-1.25.52c1.01.15,1.83.54,2.47,1.15.64.61.95,1.49.95,2.64v.57c0,1.36-.43,2.43-1.3,3.2-.87.77-2.2,1.16-4.01,1.16h-6.59v-16.56ZM349.48,374.64v5.03h2.94c.57,0,1.08-.03,1.53-.09.45-.06.83-.18,1.14-.37.31-.18.54-.44.7-.76s.24-.74.24-1.26v-.41c0-.49-.07-.88-.22-1.16-.15-.28-.38-.5-.69-.64-.31-.15-.71-.24-1.18-.28-.47-.04-1.03-.06-1.68-.06h-2.78ZM349.48,387.28h3.47c.64,0,1.21-.03,1.69-.1s.88-.2,1.19-.38c.31-.18.55-.43.7-.75.15-.31.23-.71.23-1.21v-.51c0-.5-.07-.93-.21-1.29-.14-.35-.38-.64-.71-.87-.34-.23-.78-.39-1.33-.49s-1.24-.15-2.07-.15h-2.96v5.74Z"/>
        <path class="cls-1" d="M368.2,372.69v16.56h-2.27v-16.56h2.27Z"/>
        <path class="cls-1" d="M378.72,372.69l6.43,11.16c.17.28.36.62.56,1.04.21.42.41.88.61,1.37v-13.58h2.11v16.56h-2.62l-6.43-11.12c-.17-.31-.36-.67-.56-1.08-.21-.41-.41-.86-.61-1.35v13.55h-2.11v-16.56h2.62Z"/>
        <path class="cls-1" d="M408.53,388.01c-.74.51-1.6.88-2.58,1.13-.99.25-2,.37-3.04.37-1.1,0-2.09-.15-2.96-.45-.87-.3-1.61-.75-2.22-1.37-.6-.61-1.07-1.37-1.4-2.27-.33-.9-.49-1.97-.49-3.19v-2.5c0-1.21.16-2.27.48-3.17s.78-1.66,1.38-2.27c.6-.61,1.32-1.07,2.17-1.38.85-.31,1.8-.46,2.86-.46s2.06.14,2.96.41,1.75.72,2.53,1.33l-1.17,1.84c-.72-.57-1.42-.96-2.11-1.18-.69-.22-1.42-.33-2.21-.33-1.44,0-2.57.44-3.39,1.32-.82.88-1.23,2.28-1.23,4.19v1.91c0,1.91.44,3.31,1.32,4.19.88.88,2.06,1.32,3.55,1.32.63,0,1.22-.06,1.78-.17.56-.12,1.06-.28,1.5-.49v-4.66h-3.67v-1.95h5.95v7.85Z"/>
        <path class="cls-1" d="M429.29,389.25v-14.61h-5.05v-1.95h12.38v1.95h-5.05v14.61h-2.27Z"/>
        <path class="cls-1" d="M448.95,389.5c-1,0-1.9-.15-2.72-.45-.82-.3-1.53-.75-2.12-1.37-.6-.61-1.06-1.37-1.39-2.27-.33-.9-.49-1.97-.49-3.19v-2.5c0-1.21.16-2.27.49-3.17.33-.9.79-1.66,1.39-2.27.6-.61,1.31-1.07,2.14-1.38.83-.31,1.73-.46,2.71-.46s1.88.15,2.71.46c.83.31,1.54.77,2.14,1.38.6.61,1.06,1.37,1.39,2.27s.49,1.96.49,3.17v2.5c0,1.23-.17,2.29-.49,3.19s-.79,1.66-1.39,2.27c-.6.61-1.31,1.07-2.14,1.37-.83.3-1.73.45-2.71.45ZM448.95,374.51c-.64,0-1.24.1-1.78.31-.54.21-1.01.53-1.4.96s-.7,1-.92,1.7c-.22.7-.33,1.53-.33,2.49v2c0,.96.11,1.79.33,2.49.22.7.53,1.26.92,1.7s.86.76,1.4.96c.54.21,1.14.31,1.78.31s1.24-.1,1.78-.31,1.01-.53,1.4-.96.7-1,.92-1.7c.22-.7.33-1.53.33-2.49v-2c0-.96-.11-1.79-.33-2.49-.22-.7-.53-1.26-.92-1.7s-.86-.76-1.4-.96-1.14-.31-1.78-.31Z"/>
        <path class="cls-1" d="M476.49,389.25v-14.61h-5.05v-1.95h12.38v1.95h-5.05v14.61h-2.27Z"/>
        <path class="cls-1" d="M502.45,372.69v16.56h-2.27v-7.63h-7.69v7.63h-2.27v-16.56h2.27v6.91h7.69v-6.91h2.27Z"/>
        <path class="cls-1" d="M520.66,372.69v1.95h-8.04v5.14h7.56v1.95h-7.56v5.56h8.2v1.95h-10.47v-16.56h10.31Z"/>
        <path class="cls-1" d="M540.37,389.25h-2.27v-16.56h6c.84,0,1.59.12,2.25.34s1.21.54,1.65.94c.44.4.78.87,1.02,1.42.24.55.36,1.16.36,1.81v.6c0,.93-.24,1.76-.72,2.48s-1.17,1.26-2.06,1.61l3.29,7.35h-2.46l-2.99-6.91h-4.07v6.91ZM540.37,380.41h3.17c1.29,0,2.2-.24,2.75-.72.54-.48.82-1.13.82-1.94v-.46c0-.81-.27-1.46-.8-1.93s-1.38-.71-2.53-.71h-3.4v5.76Z"/>
        <path class="cls-1" d="M559.32,372.69v16.56h-2.27v-16.56h2.27Z"/>
        <path class="cls-1" d="M579.21,387.39c-.83.8-1.73,1.35-2.71,1.65-.98.31-2.03.46-3.15.46-1,0-1.9-.15-2.71-.45-.81-.3-1.51-.75-2.09-1.37s-1.03-1.37-1.36-2.27-.48-1.97-.48-3.19v-2.5c0-1.21.16-2.27.48-3.17s.78-1.66,1.37-2.27c.59-.61,1.29-1.07,2.1-1.38.81-.31,1.71-.46,2.69-.46,1.15,0,2.15.14,3.01.42.86.28,1.68.73,2.46,1.34l-1.17,1.86c-.75-.61-1.47-1.02-2.15-1.22-.68-.2-1.4-.3-2.15-.3-.63,0-1.21.11-1.73.32s-.99.54-1.38.99c-.39.44-.69,1.01-.91,1.7-.21.69-.32,1.51-.32,2.46v1.91c0,.95.11,1.77.32,2.46.21.69.52,1.26.91,1.7.39.44.85.77,1.38.99.53.21,1.11.32,1.73.32.8,0,1.59-.12,2.39-.37.8-.25,1.54-.7,2.23-1.38l1.24,1.75Z"/>
        <path class="cls-1" d="M598.39,372.69v16.56h-2.27v-7.63h-7.69v7.63h-2.27v-16.56h2.27v6.91h7.69v-6.91h2.27Z"/>
      </g>
      <rect class="cls-1" x="22.82" y="188.87" width="12.24" height="57.88" transform="translate(-188.87 246.75) rotate(-90)"/>
      <polygon class="cls-1" points="284.6 175.79 292.64 185.01 247.95 223.88 239.91 214.75 284.6 175.79"/>
      <path class="cls-2" d="M200.86,251.41c-26.84-.16-48.49,21.56-48.61,48.06-.12,26.8,21.64,48.61,48.3,48.51,26.58.09,48.09-21.5,48.29-47.88.21-26.88-21.52-48.53-47.98-48.69ZM224.46,275.39c-.87.82-2.15.41-3.02-.43-.68-.66-1.21-1.47-1.78-2.24-1.35-1.84-3.57-2.21-5.17-.54-1.22,1.27-2.41,2.81-2.95,4.45-1.62,4.98-2.92,10.07-4.43,15.4,4.47.66,8.64,1.28,13,1.92-.35,1.24-.65,2.33-1.01,3.61-4.24-.6-8.36-1.18-12.57-1.78-.52,2.54-.99,4.86-1.53,7.48,4.45.66,8.87,1.31,13.5,1.99-.36,1.23-.68,2.37-1.05,3.63-4.42-.64-8.76-1.27-13.18-1.91-.84,3.17-1.51,6.28-2.5,9.29-1.09,3.32-2.25,6.65-3.8,9.78-1.97,3.97-5.14,6.78-9.65,7.67-2.69.53-5.34.28-7.59-1.46-.67-.52-1.4-1.4-1.44-2.16-.06-.85.42-2.02,1.06-2.54.44-.35,1.77-.09,2.36.35.82.6,1.33,1.63,1.95,2.49,1.37,1.91,3.37,2.17,5.19.63,2.21-1.87,3.35-4.44,4.06-7.11,1.48-5.58,2.71-11.24,4.03-16.86.06-.25,0-.52,0-.98-4.14-.63-8.25-1.26-12.51-1.91.16-1.22.3-2.26.48-3.63,4.25.59,8.46,1.18,12.91,1.8.58-2.45,1.15-4.84,1.75-7.39-4.53-.7-8.92-1.37-13.51-2.08.16-1.25.32-2.42.48-3.67,4.63.67,9.13,1.32,13.83,2,.38-1.37.7-2.64,1.07-3.88,1.28-4.28,2.46-8.6,5.16-12.29,2.72-3.71,6.17-6.17,10.99-5.97,2.16.09,4.21.7,5.72,2.41.31.35.76.8.74,1.18-.05.95-.04,2.21-.61,2.75Z"/>
    </g>
  </g>
</svg>